 <svg width="24" height="24" viewBox="0 0 24 24" fill="none" xmlns="http://www.w3.org/2000/svg">
              <path fill-rule="evenodd" clip-rule="evenodd" d="M5.31344 6.84335C5.29852 6.67833 5.31815 6.512 5.37107 6.35498C5.42398 6.19796 5.50903 6.05369 5.62078 5.93135C5.73254 5.80901 5.86855 5.7113 6.02016 5.64443C6.17176 5.57756 6.33564 5.54301 6.50133 5.54297H20.964C21.1427 5.54304 21.319 5.58323 21.48 5.66057C21.641 5.7379 21.7826 5.8504 21.8944 5.98978C22.0061 6.12915 22.0851 6.29184 22.1256 6.46583C22.166 6.63981 22.1669 6.82067 22.1281 6.99503L20.9061 12.5033C20.6959 13.4499 20.1691 14.2965 19.4127 14.9032C18.6563 15.51 17.7156 15.8405 16.7459 15.8404H10.019C8.95533 15.8404 7.93009 15.4426 7.14482 14.7252C6.35955 14.0077 5.87103 13.0224 5.7753 11.9631L5.31344 6.84335ZM7.06034 7.24727L7.47279 11.8097C7.53025 12.4456 7.8236 13.037 8.29513 13.4675C8.76665 13.898 9.38221 14.1365 10.0207 14.1361H16.7476C17.3293 14.1359 17.8935 13.9374 18.3471 13.5733C18.8008 13.2092 19.1167 12.7014 19.2427 12.1335L20.3283 7.24727H7.06034Z" fill="#666666"/>
              <path fill-rule="evenodd" clip-rule="evenodd" d="M1.78906 2.68418C1.78906 2.45818 1.87884 2.24143 2.03865 2.08162C2.19846 1.92181 2.41521 1.83203 2.64121 1.83203H5.63056C5.839 1.83224 6.04014 1.90885 6.19591 2.04735C6.35169 2.18585 6.4513 2.37664 6.47589 2.58363L7.16102 8.37996C7.18746 8.60461 7.12358 8.83056 6.98343 9.00811C6.84328 9.18565 6.63833 9.30025 6.41368 9.3267C6.18904 9.35314 5.96309 9.28926 5.78554 9.14911C5.60799 9.00895 5.49339 8.80401 5.46695 8.57936L4.87214 3.53463H2.64121C2.41521 3.53463 2.19846 3.44485 2.03865 3.28504C1.87884 3.12523 1.78906 2.91019 1.78906 2.68418ZM9.45842 20.2947C9.68442 20.2947 9.90117 20.2049 10.061 20.0451C10.2208 19.8853 10.3106 19.6686 10.3106 19.4426C10.3106 19.2166 10.2208 18.9998 10.061 18.84C9.90117 18.6802 9.68442 18.5904 9.45842 18.5904C9.23242 18.5904 9.01567 18.6802 8.85586 18.84C8.69605 18.9998 8.60627 19.2166 8.60627 19.4426C8.60627 19.6686 8.69605 19.8853 8.85586 20.0451C9.01567 20.2049 9.23242 20.2947 9.45842 20.2947ZM9.45842 21.999C9.79414 21.999 10.1266 21.9329 10.4367 21.8044C10.7469 21.676 11.0287 21.4876 11.2661 21.2503C11.5035 21.0129 11.6918 20.7311 11.8203 20.4209C11.9487 20.1107 12.0149 19.7783 12.0149 19.4426C12.0149 19.1069 11.9487 18.7744 11.8203 18.4643C11.6918 18.1541 11.5035 17.8723 11.2661 17.6349C11.0287 17.3975 10.7469 17.2092 10.4367 17.0807C10.1266 16.9523 9.79414 16.8861 9.45842 16.8861C8.78041 16.8861 8.13016 17.1555 7.65073 17.6349C7.17131 18.1143 6.90197 18.7646 6.90197 19.4426C6.90197 20.1206 7.17131 20.7708 7.65073 21.2503C8.13016 21.7297 8.78041 21.999 9.45842 21.999ZM17.2334 20.2947C17.4594 20.2947 17.6762 20.2049 17.836 20.0451C17.9958 19.8853 18.0856 19.6686 18.0856 19.4426C18.0856 19.2166 17.9958 18.9998 17.836 18.84C17.6762 18.6802 17.4594 18.5904 17.2334 18.5904C17.0074 18.5904 16.7907 18.6802 16.6309 18.84C16.4711 18.9998 16.3813 19.2166 16.3813 19.4426C16.3813 19.6686 16.4711 19.8853 16.6309 20.0451C16.7907 20.2049 17.0074 20.2947 17.2334 20.2947ZM17.2334 21.999C17.5692 21.999 17.9016 21.9329 18.2118 21.8044C18.5219 21.676 18.8037 21.4876 19.0411 21.2503C19.2785 21.0129 19.4668 20.7311 19.5953 20.4209C19.7238 20.1107 19.7899 19.7783 19.7899 19.4426C19.7899 19.1069 19.7238 18.7744 19.5953 18.4643C19.4668 18.1541 19.2785 17.8723 19.0411 17.6349C18.8037 17.3975 18.5219 17.2092 18.2118 17.0807C17.9016 16.9523 17.5692 16.8861 17.2334 16.8861C16.5554 16.8861 15.9052 17.1555 15.4258 17.6349C14.9463 18.1143 14.677 18.7646 14.677 19.4426C14.677 20.1206 14.9463 20.7708 15.4258 21.2503C15.9052 21.7297 16.5554 21.999 17.2334 21.999Z" fill="#666666"/>
             </svg>